<?xml version="1.0" encoding="UTF-8"?>
<svg xmlns="http://www.w3.org/2000/svg" xmlns:xlink="http://www.w3.org/1999/xlink" width="69pt" height="117pt" viewBox="0 0 69 117" version="1.1">
<g id="surface1">
<path style=" stroke:none;fill-rule:evenodd;fill:rgb(0%,0%,0%);fill-opacity:1;" d="M 36.300781 2.5 C 36.300781 1.507813 35.492188 0.699219 34.5 0.699219 C 33.507813 0.699219 32.699219 1.507813 32.699219 2.5 C 32.699219 3.492188 33.507813 4.300781 34.5 4.300781 C 35.492188 4.300781 36.300781 3.492188 36.300781 2.5 "/>
<path style=" stroke:none;fill-rule:evenodd;fill:rgb(0%,0%,0%);fill-opacity:1;" d="M 4.300781 50.5 C 4.300781 49.507813 3.492188 48.699219 2.5 48.699219 C 1.507813 48.699219 0.699219 49.507813 0.699219 50.5 C 0.699219 51.492188 1.507813 52.300781 2.5 52.300781 C 3.492188 52.300781 4.300781 51.492188 4.300781 50.5 "/>
<path style=" stroke:none;fill-rule:evenodd;fill:rgb(0%,0%,0%);fill-opacity:1;" d="M 36.300781 50.5 C 36.300781 49.507813 35.492188 48.699219 34.5 48.699219 C 33.507813 48.699219 32.699219 49.507813 32.699219 50.5 C 32.699219 51.492188 33.507813 52.300781 34.5 52.300781 C 35.492188 52.300781 36.300781 51.492188 36.300781 50.5 "/>
<path style=" stroke:none;fill-rule:evenodd;fill:rgb(0%,0%,0%);fill-opacity:1;" d="M 68.300781 50.5 C 68.300781 49.507813 67.492188 48.699219 66.5 48.699219 C 65.507813 48.699219 64.699219 49.507813 64.699219 50.5 C 64.699219 51.492188 65.507813 52.300781 66.5 52.300781 C 67.492188 52.300781 68.300781 51.492188 68.300781 50.5 "/>
<path style=" stroke:none;fill-rule:evenodd;fill:rgb(0%,0%,0%);fill-opacity:1;" d="M 20.300781 82.5 C 20.300781 81.507813 19.492188 80.699219 18.5 80.699219 C 17.507813 80.699219 16.699219 81.507813 16.699219 82.5 C 16.699219 83.492188 17.507813 84.300781 18.5 84.300781 C 19.492188 84.300781 20.300781 83.492188 20.300781 82.5 "/>
<path style=" stroke:none;fill-rule:evenodd;fill:rgb(0%,0%,0%);fill-opacity:1;" d="M 52.300781 82.5 C 52.300781 81.507813 51.492188 80.699219 50.5 80.699219 C 49.507813 80.699219 48.699219 81.507813 48.699219 82.5 C 48.699219 83.492188 49.507813 84.300781 50.5 84.300781 C 51.492188 84.300781 52.300781 83.492188 52.300781 82.5 "/>
<path style=" stroke:none;fill-rule:evenodd;fill:rgb(0%,0%,0%);fill-opacity:1;" d="M 4.300781 114.5 C 4.300781 113.507813 3.492188 112.699219 2.5 112.699219 C 1.507813 112.699219 0.699219 113.507813 0.699219 114.5 C 0.699219 115.492188 1.507813 116.300781 2.5 116.300781 C 3.492188 116.300781 4.300781 115.492188 4.300781 114.5 "/>
<path style=" stroke:none;fill-rule:evenodd;fill:rgb(0%,0%,0%);fill-opacity:1;" d="M 36.300781 114.5 C 36.300781 113.507813 35.492188 112.699219 34.5 112.699219 C 33.507813 112.699219 32.699219 113.507813 32.699219 114.5 C 32.699219 115.492188 33.507813 116.300781 34.5 116.300781 C 35.492188 116.300781 36.300781 115.492188 36.300781 114.5 "/>
<path style=" stroke:none;fill-rule:evenodd;fill:rgb(0%,0%,0%);fill-opacity:1;" d="M 68.300781 114.5 C 68.300781 113.507813 67.492188 112.699219 66.5 112.699219 C 65.507813 112.699219 64.699219 113.507813 64.699219 114.5 C 64.699219 115.492188 65.507813 116.300781 66.5 116.300781 C 67.492188 116.300781 68.300781 115.492188 68.300781 114.5 "/>
<path style="fill:none;stroke-width:0.4;stroke-linecap:round;stroke-linejoin:round;stroke:rgb(0%,0%,0%);stroke-opacity:1;stroke-miterlimit:10;" d="M 160 800 L 160 800 " transform="matrix(1,0,0,-1,-125.5,802.5)"/>
<path style="fill:none;stroke-width:0.4;stroke-linecap:butt;stroke-linejoin:round;stroke:rgb(0%,0%,0%);stroke-opacity:1;stroke-miterlimit:10;" d="M 160 800 L 128 752 " transform="matrix(1,0,0,-1,-125.5,802.5)"/>
<path style="fill:none;stroke-width:0.4;stroke-linecap:butt;stroke-linejoin:round;stroke:rgb(0%,0%,0%);stroke-opacity:1;stroke-miterlimit:10;" d="M 160 800 L 160 752 " transform="matrix(1,0,0,-1,-125.5,802.5)"/>
<path style="fill-rule:evenodd;fill:rgb(0%,0%,0%);fill-opacity:1;stroke-width:0.4;stroke-linecap:butt;stroke-linejoin:round;stroke:rgb(0%,0%,0%);stroke-opacity:1;stroke-miterlimit:10;" d="M 160 752 L 161.664063 757 L 160 756 L 158.335938 757 Z M 160 752 " transform="matrix(1,0,0,-1,-125.5,802.5)"/>
<path style="fill:none;stroke-width:0.4;stroke-linecap:butt;stroke-linejoin:round;stroke:rgb(0%,0%,0%);stroke-opacity:1;stroke-miterlimit:10;" d="M 160 800 L 128 752 " transform="matrix(1,0,0,-1,-125.5,802.5)"/>
<path style="fill:none;stroke-width:0.4;stroke-linecap:butt;stroke-linejoin:round;stroke:rgb(0%,0%,0%);stroke-opacity:1;stroke-miterlimit:10;" d="M 160 800 L 128 752 " transform="matrix(1,0,0,-1,-125.5,802.5)"/>
<path style="fill-rule:evenodd;fill:rgb(0%,0%,0%);fill-opacity:1;stroke-width:0.4;stroke-linecap:butt;stroke-linejoin:round;stroke:rgb(0%,0%,0%);stroke-opacity:1;stroke-miterlimit:10;" d="M 128 752 L 132.160156 755.238281 L 130.21875 755.328125 L 129.386719 757.085938 Z M 128 752 " transform="matrix(1,0,0,-1,-125.5,802.5)"/>
<path style="fill:none;stroke-width:0.4;stroke-linecap:butt;stroke-linejoin:round;stroke:rgb(0%,0%,0%);stroke-opacity:1;stroke-miterlimit:10;" d="M 160 800 L 192 752 " transform="matrix(1,0,0,-1,-125.5,802.5)"/>
<path style="fill-rule:evenodd;fill:rgb(0%,0%,0%);fill-opacity:1;stroke-width:0.4;stroke-linecap:butt;stroke-linejoin:round;stroke:rgb(0%,0%,0%);stroke-opacity:1;stroke-miterlimit:10;" d="M 192 752 L 190.613281 757.085938 L 189.78125 755.328125 L 187.839844 755.238281 Z M 192 752 " transform="matrix(1,0,0,-1,-125.5,802.5)"/>
<path style="fill:none;stroke-width:0.4;stroke-linecap:butt;stroke-linejoin:round;stroke:rgb(0%,0%,0%);stroke-opacity:1;stroke-miterlimit:10;" d="M 128 752 L 144 720 " transform="matrix(1,0,0,-1,-125.5,802.5)"/>
<path style="fill-rule:evenodd;fill:rgb(0%,0%,0%);fill-opacity:1;stroke-width:0.4;stroke-linecap:butt;stroke-linejoin:round;stroke:rgb(0%,0%,0%);stroke-opacity:1;stroke-miterlimit:10;" d="M 144 720 L 143.253906 725.21875 L 142.210938 723.578125 L 140.273438 723.726563 Z M 144 720 " transform="matrix(1,0,0,-1,-125.5,802.5)"/>
<path style="fill:none;stroke-width:0.4;stroke-linecap:butt;stroke-linejoin:round;stroke:rgb(0%,0%,0%);stroke-opacity:1;stroke-miterlimit:10;" d="M 160 752 L 176 720 " transform="matrix(1,0,0,-1,-125.5,802.5)"/>
<path style="fill-rule:evenodd;fill:rgb(0%,0%,0%);fill-opacity:1;stroke-width:0.4;stroke-linecap:butt;stroke-linejoin:round;stroke:rgb(0%,0%,0%);stroke-opacity:1;stroke-miterlimit:10;" d="M 176 720 L 175.253906 725.21875 L 174.210938 723.578125 L 172.273438 723.726563 Z M 176 720 " transform="matrix(1,0,0,-1,-125.5,802.5)"/>
<path style="fill:none;stroke-width:0.4;stroke-linecap:butt;stroke-linejoin:round;stroke:rgb(0%,0%,0%);stroke-opacity:1;stroke-miterlimit:10;" d="M 192 752 L 176 720 " transform="matrix(1,0,0,-1,-125.5,802.5)"/>
<path style="fill-rule:evenodd;fill:rgb(0%,0%,0%);fill-opacity:1;stroke-width:0.4;stroke-linecap:butt;stroke-linejoin:round;stroke:rgb(0%,0%,0%);stroke-opacity:1;stroke-miterlimit:10;" d="M 176 720 L 179.726563 723.726563 L 177.789063 723.578125 L 176.746094 725.21875 Z M 176 720 " transform="matrix(1,0,0,-1,-125.5,802.5)"/>
<path style="fill:none;stroke-width:0.4;stroke-linecap:butt;stroke-linejoin:round;stroke:rgb(0%,0%,0%);stroke-opacity:1;stroke-miterlimit:10;" d="M 192 752 L 144 720 " transform="matrix(1,0,0,-1,-125.5,802.5)"/>
<path style="fill-rule:evenodd;fill:rgb(0%,0%,0%);fill-opacity:1;stroke-width:0.4;stroke-linecap:butt;stroke-linejoin:round;stroke:rgb(0%,0%,0%);stroke-opacity:1;stroke-miterlimit:10;" d="M 144 720 L 149.085938 721.386719 L 147.328125 722.21875 L 147.238281 724.160156 Z M 144 720 " transform="matrix(1,0,0,-1,-125.5,802.5)"/>
<path style="fill:none;stroke-width:0.4;stroke-linecap:butt;stroke-linejoin:round;stroke:rgb(0%,0%,0%);stroke-opacity:1;stroke-miterlimit:10;" d="M 160 752 L 144 720 " transform="matrix(1,0,0,-1,-125.5,802.5)"/>
<path style="fill-rule:evenodd;fill:rgb(0%,0%,0%);fill-opacity:1;stroke-width:0.4;stroke-linecap:butt;stroke-linejoin:round;stroke:rgb(0%,0%,0%);stroke-opacity:1;stroke-miterlimit:10;" d="M 144 720 L 147.726563 723.726563 L 145.789063 723.578125 L 144.746094 725.21875 Z M 144 720 " transform="matrix(1,0,0,-1,-125.5,802.5)"/>
<path style="fill:none;stroke-width:0.4;stroke-linecap:butt;stroke-linejoin:round;stroke:rgb(0%,0%,0%);stroke-opacity:1;stroke-miterlimit:10;" d="M 128 752 L 176 720 " transform="matrix(1,0,0,-1,-125.5,802.5)"/>
<path style="fill-rule:evenodd;fill:rgb(0%,0%,0%);fill-opacity:1;stroke-width:0.4;stroke-linecap:butt;stroke-linejoin:round;stroke:rgb(0%,0%,0%);stroke-opacity:1;stroke-miterlimit:10;" d="M 176 720 L 172.761719 724.160156 L 172.671875 722.21875 L 170.914063 721.386719 Z M 176 720 " transform="matrix(1,0,0,-1,-125.5,802.5)"/>
<path style="fill:none;stroke-width:0.4;stroke-linecap:butt;stroke-linejoin:round;stroke:rgb(0%,0%,0%);stroke-opacity:1;stroke-miterlimit:10;" d="M 144 720 L 128 688 " transform="matrix(1,0,0,-1,-125.5,802.5)"/>
<path style="fill-rule:evenodd;fill:rgb(0%,0%,0%);fill-opacity:1;stroke-width:0.4;stroke-linecap:butt;stroke-linejoin:round;stroke:rgb(0%,0%,0%);stroke-opacity:1;stroke-miterlimit:10;" d="M 128 688 L 131.726563 691.726563 L 129.789063 691.578125 L 128.746094 693.21875 Z M 128 688 " transform="matrix(1,0,0,-1,-125.5,802.5)"/>
<path style="fill:none;stroke-width:0.4;stroke-linecap:butt;stroke-linejoin:round;stroke:rgb(0%,0%,0%);stroke-opacity:1;stroke-miterlimit:10;" d="M 144 720 L 160 688 " transform="matrix(1,0,0,-1,-125.5,802.5)"/>
<path style="fill-rule:evenodd;fill:rgb(0%,0%,0%);fill-opacity:1;stroke-width:0.4;stroke-linecap:butt;stroke-linejoin:round;stroke:rgb(0%,0%,0%);stroke-opacity:1;stroke-miterlimit:10;" d="M 160 688 L 159.253906 693.21875 L 158.210938 691.578125 L 156.273438 691.726563 Z M 160 688 " transform="matrix(1,0,0,-1,-125.5,802.5)"/>
<path style="fill:none;stroke-width:0.4;stroke-linecap:round;stroke-linejoin:round;stroke:rgb(0%,0%,0%);stroke-opacity:1;stroke-miterlimit:10;" d="M 176 720 L 176 720 " transform="matrix(1,0,0,-1,-125.5,802.5)"/>
<path style="fill:none;stroke-width:0.4;stroke-linecap:round;stroke-linejoin:round;stroke:rgb(0%,0%,0%);stroke-opacity:1;stroke-miterlimit:10;" d="M 176 720 L 176 720 " transform="matrix(1,0,0,-1,-125.5,802.5)"/>
<path style="fill:none;stroke-width:0.4;stroke-linecap:butt;stroke-linejoin:round;stroke:rgb(0%,0%,0%);stroke-opacity:1;stroke-miterlimit:10;" d="M 176 720 L 192 688 " transform="matrix(1,0,0,-1,-125.5,802.5)"/>
<path style="fill-rule:evenodd;fill:rgb(0%,0%,0%);fill-opacity:1;stroke-width:0.4;stroke-linecap:butt;stroke-linejoin:round;stroke:rgb(0%,0%,0%);stroke-opacity:1;stroke-miterlimit:10;" d="M 192 688 L 191.253906 693.21875 L 190.210938 691.578125 L 188.273438 691.726563 Z M 192 688 " transform="matrix(1,0,0,-1,-125.5,802.5)"/>
<path style="fill:none;stroke-width:0.4;stroke-linecap:butt;stroke-linejoin:round;stroke:rgb(0%,0%,0%);stroke-opacity:1;stroke-miterlimit:10;" d="M 176 720 L 160 688 " transform="matrix(1,0,0,-1,-125.5,802.5)"/>
<path style="fill-rule:evenodd;fill:rgb(0%,0%,0%);fill-opacity:1;stroke-width:0.4;stroke-linecap:butt;stroke-linejoin:round;stroke:rgb(0%,0%,0%);stroke-opacity:1;stroke-miterlimit:10;" d="M 160 688 L 163.726563 691.726563 L 161.789063 691.578125 L 160.746094 693.21875 Z M 160 688 " transform="matrix(1,0,0,-1,-125.5,802.5)"/>
<path style="fill:none;stroke-width:0.4;stroke-linecap:butt;stroke-linejoin:round;stroke:rgb(0%,0%,0%);stroke-opacity:1;stroke-miterlimit:10;" d="M 176 720 L 128 688 " transform="matrix(1,0,0,-1,-125.5,802.5)"/>
<path style="fill-rule:evenodd;fill:rgb(0%,0%,0%);fill-opacity:1;stroke-width:0.4;stroke-linecap:butt;stroke-linejoin:round;stroke:rgb(0%,0%,0%);stroke-opacity:1;stroke-miterlimit:10;" d="M 128 688 L 133.085938 689.386719 L 131.328125 690.21875 L 131.238281 692.160156 Z M 128 688 " transform="matrix(1,0,0,-1,-125.5,802.5)"/>
</g>
</svg>
