<?xml version="1.0" encoding="UTF-8" standalone="no"?>
<svg
   xmlns:dc="http://purl.org/dc/elements/1.1/"
   xmlns:cc="http://creativecommons.org/ns#"
   xmlns:rdf="http://www.w3.org/1999/02/22-rdf-syntax-ns#"
   xmlns:svg="http://www.w3.org/2000/svg"
   xmlns="http://www.w3.org/2000/svg"
   viewBox="0 0 1200 675"
   height="675"
   width="1200"
   xml:space="preserve"
   version="1.1"
   id="svg2"><metadata
     id="metadata8"><rdf:RDF><cc:Work
         rdf:about=""><dc:format>image/svg+xml</dc:format><dc:type
           rdf:resource="http://purl.org/dc/dcmitype/StillImage" /></cc:Work></rdf:RDF></metadata><defs
     id="defs6"><clipPath
       id="clipPath16"
       clipPathUnits="userSpaceOnUse"><path
         style="clip-rule:evenodd"
         id="path18"
         d="m 0,1.2207e-4 960,0 0,539.99999793 -960,0 L 0,1.2207e-4 Z" /></clipPath></defs><g
     transform="matrix(1.25,0,0,-1.25,0,675)"
     id="g10"><g
       id="g12"><g
         clip-path="url(#clipPath16)"
         id="g14"><path
           id="path20"
           style="fill:#ffffff;fill-opacity:1;fill-rule:evenodd;stroke:none"
           d="m 0,6.1035e-5 960,0 0,539.999998965 -960,0 L 0,6.1035e-5 Z" /></g></g><path
       id="path22"
       style="fill:#ffffff;fill-opacity:1;fill-rule:evenodd;stroke:none"
       d="m 286.08,382.14 c 0,8.72 7.06,15.78 15.78,15.78 8.72,0 15.78,-7.06 15.78,-15.78 0,-8.72 -7.06,-15.78 -15.78,-15.78 -8.72,0 -15.78,7.06 -15.78,15.78 z" /><path
       id="path24"
       style="fill:none;stroke:#2f528f;stroke-width:0.95999998;stroke-linecap:butt;stroke-linejoin:miter;stroke-miterlimit:10;stroke-dasharray:none;stroke-opacity:1"
       d="m 286.08,382.14 c 0,8.72 7.06,15.78 15.78,15.78 8.72,0 15.78,-7.06 15.78,-15.78 0,-8.72 -7.06,-15.78 -15.78,-15.78 -8.72,0 -15.78,7.06 -15.78,15.78 z" /><path
       id="path26"
       style="fill:#ffffff;fill-opacity:1;fill-rule:evenodd;stroke:none"
       d="m 433.32,382.14 c 0,8.72 7.06,15.78 15.78,15.78 8.72,0 15.78,-7.06 15.78,-15.78 0,-8.72 -7.06,-15.78 -15.78,-15.78 -8.72,0 -15.78,7.06 -15.78,15.78 z" /><path
       id="path28"
       style="fill:none;stroke:#2f528f;stroke-width:0.95999998;stroke-linecap:butt;stroke-linejoin:miter;stroke-miterlimit:10;stroke-dasharray:none;stroke-opacity:1"
       d="m 433.32,382.14 c 0,8.72 7.06,15.78 15.78,15.78 8.72,0 15.78,-7.06 15.78,-15.78 0,-8.72 -7.06,-15.78 -15.78,-15.78 -8.72,0 -15.78,7.06 -15.78,15.78 z" /><path
       id="path30"
       style="fill:#4472c4;fill-opacity:1;fill-rule:evenodd;stroke:none"
       d="m 340.44,366.36 70.08,0 0,31.56 -70.08,0 0,-31.56 z" /><path
       id="path32"
       style="fill:none;stroke:#2f528f;stroke-width:0.95999998;stroke-linecap:butt;stroke-linejoin:miter;stroke-miterlimit:10;stroke-dasharray:none;stroke-opacity:1"
       d="m 340.44,366.36 70.08,0 0,31.56 -70.08,0 0,-31.56 z" /><path
       id="path34"
       style="fill:#4472c4;fill-opacity:1;fill-rule:evenodd;stroke:none"
       d="m 487.32,366.36 70.08,0 0,31.56 -70.08,0 0,-31.56 z" /><path
       id="path36"
       style="fill:none;stroke:#2f528f;stroke-width:0.95999998;stroke-linecap:butt;stroke-linejoin:miter;stroke-miterlimit:10;stroke-dasharray:none;stroke-opacity:1"
       d="m 487.32,366.36 70.08,0 0,31.56 -70.08,0 0,-31.56 z" /><path
       id="path38"
       style="fill:#ffffff;fill-opacity:1;fill-rule:evenodd;stroke:none"
       d="m 587.88,382.14 c 0,8.72 7.06,15.78 15.78,15.78 8.72,0 15.78,-7.06 15.78,-15.78 0,-8.72 -7.06,-15.78 -15.78,-15.78 -8.72,0 -15.78,7.06 -15.78,15.78 z" /><path
       id="path40"
       style="fill:none;stroke:#2f528f;stroke-width:0.95999998;stroke-linecap:butt;stroke-linejoin:miter;stroke-miterlimit:10;stroke-dasharray:none;stroke-opacity:1"
       d="m 587.88,382.14 c 0,8.72 7.06,15.78 15.78,15.78 8.72,0 15.78,-7.06 15.78,-15.78 0,-8.72 -7.06,-15.78 -15.78,-15.78 -8.72,0 -15.78,7.06 -15.78,15.78 z" /><path
       id="path42"
       style="fill:#4472c4;fill-opacity:1;fill-rule:evenodd;stroke:none"
       d="m 649.92,366.36 70.08,0 0,31.56 -70.08,0 0,-31.56 z" /><path
       id="path44"
       style="fill:none;stroke:#2f528f;stroke-width:0.95999998;stroke-linecap:butt;stroke-linejoin:miter;stroke-miterlimit:10;stroke-dasharray:none;stroke-opacity:1"
       d="m 649.92,366.36 70.08,0 0,31.56 -70.08,0 0,-31.56 z" /><path
       id="path46"
       style="fill:#4472c4;fill-opacity:1;fill-rule:evenodd;stroke:none"
       d="m 192.96,366.36 70.08,0 0,31.56 -70.08,0 0,-31.56 z" /><path
       id="path48"
       style="fill:none;stroke:#2f528f;stroke-width:0.95999998;stroke-linecap:butt;stroke-linejoin:miter;stroke-miterlimit:10;stroke-dasharray:none;stroke-opacity:1"
       d="m 192.96,366.36 70.08,0 0,31.56 -70.08,0 0,-31.56 z" /></g></svg>