<?xml version="1.0" encoding="UTF-8"?>
<svg xmlns="http://www.w3.org/2000/svg" xmlns:xlink="http://www.w3.org/1999/xlink" width="102.078pt" height="85pt" viewBox="0 0 102.078 85" version="1.1">
<g id="surface1">
<path style=" stroke:none;fill-rule:evenodd;fill:rgb(0%,0%,0%);fill-opacity:1;" d="M 20.300781 50.5 C 20.300781 49.507813 19.492188 48.699219 18.5 48.699219 C 17.507813 48.699219 16.699219 49.507813 16.699219 50.5 C 16.699219 51.492188 17.507813 52.300781 18.5 52.300781 C 19.492188 52.300781 20.300781 51.492188 20.300781 50.5 "/>
<path style=" stroke:none;fill-rule:evenodd;fill:rgb(0%,100%,0%);fill-opacity:1;" d="M 36.300781 50.5 C 36.300781 49.507813 35.492188 48.699219 34.5 48.699219 C 33.507813 48.699219 32.699219 49.507813 32.699219 50.5 C 32.699219 51.492188 33.507813 52.300781 34.5 52.300781 C 35.492188 52.300781 36.300781 51.492188 36.300781 50.5 "/>
<path style=" stroke:none;fill-rule:evenodd;fill:rgb(0%,0%,0%);fill-opacity:1;" d="M 52.300781 50.5 C 52.300781 49.507813 51.492188 48.699219 50.5 48.699219 C 49.507813 48.699219 48.699219 49.507813 48.699219 50.5 C 48.699219 51.492188 49.507813 52.300781 50.5 52.300781 C 51.492188 52.300781 52.300781 51.492188 52.300781 50.5 "/>
<path style=" stroke:none;fill-rule:evenodd;fill:rgb(0%,100%,0%);fill-opacity:1;" d="M 68.300781 50.5 C 68.300781 49.507813 67.492188 48.699219 66.5 48.699219 C 65.507813 48.699219 64.699219 49.507813 64.699219 50.5 C 64.699219 51.492188 65.507813 52.300781 66.5 52.300781 C 67.492188 52.300781 68.300781 51.492188 68.300781 50.5 "/>
<path style=" stroke:none;fill-rule:evenodd;fill:rgb(0%,0%,0%);fill-opacity:1;" d="M 36.300781 34.5 C 36.300781 33.507813 35.492188 32.699219 34.5 32.699219 C 33.507813 32.699219 32.699219 33.507813 32.699219 34.5 C 32.699219 35.492188 33.507813 36.300781 34.5 36.300781 C 35.492188 36.300781 36.300781 35.492188 36.300781 34.5 "/>
<path style=" stroke:none;fill-rule:evenodd;fill:rgb(0%,0%,0%);fill-opacity:1;" d="M 68.300781 2.5 C 68.300781 1.507813 67.492188 0.699219 66.5 0.699219 C 65.507813 0.699219 64.699219 1.507813 64.699219 2.5 C 64.699219 3.492188 65.507813 4.300781 66.5 4.300781 C 67.492188 4.300781 68.300781 3.492188 68.300781 2.5 "/>
<path style=" stroke:none;fill-rule:evenodd;fill:rgb(100%,0%,0%);fill-opacity:1;" d="M 100.300781 50.5 C 100.300781 49.507813 99.492188 48.699219 98.5 48.699219 C 97.507813 48.699219 96.699219 49.507813 96.699219 50.5 C 96.699219 51.492188 97.507813 52.300781 98.5 52.300781 C 99.492188 52.300781 100.300781 51.492188 100.300781 50.5 "/>
<path style=" stroke:none;fill-rule:evenodd;fill:rgb(0%,0%,0%);fill-opacity:1;" d="M 84.300781 50.5 C 84.300781 49.507813 83.492188 48.699219 82.5 48.699219 C 81.507813 48.699219 80.699219 49.507813 80.699219 50.5 C 80.699219 51.492188 81.507813 52.300781 82.5 52.300781 C 83.492188 52.300781 84.300781 51.492188 84.300781 50.5 "/>
<path style=" stroke:none;fill-rule:evenodd;fill:rgb(0%,0%,0%);fill-opacity:1;" d="M 20.300781 66.5 C 20.300781 65.507813 19.492188 64.699219 18.5 64.699219 C 17.507813 64.699219 16.699219 65.507813 16.699219 66.5 C 16.699219 67.492188 17.507813 68.300781 18.5 68.300781 C 19.492188 68.300781 20.300781 67.492188 20.300781 66.5 "/>
<path style=" stroke:none;fill-rule:evenodd;fill:rgb(0%,0%,0%);fill-opacity:1;" d="M 20.300781 50.5 C 20.300781 49.507813 19.492188 48.699219 18.5 48.699219 C 17.507813 48.699219 16.699219 49.507813 16.699219 50.5 C 16.699219 51.492188 17.507813 52.300781 18.5 52.300781 C 19.492188 52.300781 20.300781 51.492188 20.300781 50.5 "/>
<path style=" stroke:none;fill-rule:evenodd;fill:rgb(0%,100%,0%);fill-opacity:1;" d="M 4.300781 50.5 C 4.300781 49.507813 3.492188 48.699219 2.5 48.699219 C 1.507813 48.699219 0.699219 49.507813 0.699219 50.5 C 0.699219 51.492188 1.507813 52.300781 2.5 52.300781 C 3.492188 52.300781 4.300781 51.492188 4.300781 50.5 "/>
<path style=" stroke:none;fill-rule:evenodd;fill:rgb(100%,0%,0%);fill-opacity:1;" d="M 20.300781 66.5 C 20.300781 65.507813 19.492188 64.699219 18.5 64.699219 C 17.507813 64.699219 16.699219 65.507813 16.699219 66.5 C 16.699219 67.492188 17.507813 68.300781 18.5 68.300781 C 19.492188 68.300781 20.300781 67.492188 20.300781 66.5 "/>
<path style=" stroke:none;fill-rule:evenodd;fill:rgb(100%,0%,0%);fill-opacity:1;" d="M 36.300781 34.5 C 36.300781 33.507813 35.492188 32.699219 34.5 32.699219 C 33.507813 32.699219 32.699219 33.507813 32.699219 34.5 C 32.699219 35.492188 33.507813 36.300781 34.5 36.300781 C 35.492188 36.300781 36.300781 35.492188 36.300781 34.5 "/>
<path style=" stroke:none;fill-rule:evenodd;fill:rgb(0%,0%,0%);fill-opacity:1;" d="M 68.300781 2.5 C 68.300781 1.507813 67.492188 0.699219 66.5 0.699219 C 65.507813 0.699219 64.699219 1.507813 64.699219 2.5 C 64.699219 3.492188 65.507813 4.300781 66.5 4.300781 C 67.492188 4.300781 68.300781 3.492188 68.300781 2.5 "/>
<path style=" stroke:none;fill-rule:evenodd;fill:rgb(100%,0%,0%);fill-opacity:1;" d="M 52.300781 50.5 C 52.300781 49.507813 51.492188 48.699219 50.5 48.699219 C 49.507813 48.699219 48.699219 49.507813 48.699219 50.5 C 48.699219 51.492188 49.507813 52.300781 50.5 52.300781 C 51.492188 52.300781 52.300781 51.492188 52.300781 50.5 "/>
<path style=" stroke:none;fill-rule:evenodd;fill:rgb(100%,0%,0%);fill-opacity:1;" d="M 68.300781 2.5 C 68.300781 1.507813 67.492188 0.699219 66.5 0.699219 C 65.507813 0.699219 64.699219 1.507813 64.699219 2.5 C 64.699219 3.492188 65.507813 4.300781 66.5 4.300781 C 67.492188 4.300781 68.300781 3.492188 68.300781 2.5 "/>
<path style=" stroke:none;fill-rule:evenodd;fill:rgb(100%,0%,0%);fill-opacity:1;" d="M 68.300781 66.5 C 68.300781 65.507813 67.492188 64.699219 66.5 64.699219 C 65.507813 64.699219 64.699219 65.507813 64.699219 66.5 C 64.699219 67.492188 65.507813 68.300781 66.5 68.300781 C 67.492188 68.300781 68.300781 67.492188 68.300781 66.5 "/>
<path style="fill:none;stroke-width:0.4;stroke-linecap:butt;stroke-linejoin:round;stroke:rgb(0%,0%,0%);stroke-opacity:1;stroke-miterlimit:10;" d="M 111.121094 702.992188 C 109.121094 700.039063 108.742188 695.566406 109.980469 689.566406 " transform="matrix(1,0,0,-1,-93.5,754.5)"/>
<path style="fill-rule:evenodd;fill:rgb(0%,0%,0%);fill-opacity:1;stroke-width:0.4;stroke-linecap:butt;stroke-linejoin:round;stroke:rgb(0%,0%,0%);stroke-opacity:1;stroke-miterlimit:10;" d="M 109.980469 689.566406 L 110.351563 692.707031 L 109.496094 691.917969 L 108.394531 692.304688 Z M 109.980469 689.566406 " transform="matrix(1,0,0,-1,-93.5,754.5)"/>
<path style="fill:none;stroke-width:0.4;stroke-linecap:butt;stroke-linejoin:round;stroke:rgb(0%,0%,0%);stroke-opacity:1;stroke-miterlimit:10;" d="M 127.117188 705.847656 C 123.976563 709.988281 122.117188 713.132813 125.972656 718.984375 " transform="matrix(1,0,0,-1,-93.5,754.5)"/>
<path style="fill-rule:evenodd;fill:rgb(0%,0%,0%);fill-opacity:1;stroke-width:0.4;stroke-linecap:butt;stroke-linejoin:round;stroke:rgb(0%,0%,0%);stroke-opacity:1;stroke-miterlimit:10;" d="M 125.972656 718.984375 L 123.488281 717.03125 L 124.652344 716.980469 L 125.160156 715.929688 Z M 125.972656 718.984375 " transform="matrix(1,0,0,-1,-93.5,754.5)"/>
<path style="fill:none;stroke-width:0.4;stroke-linecap:butt;stroke-linejoin:round;stroke:rgb(0%,0%,0%);stroke-opacity:1;stroke-miterlimit:10;" d="M 129.828125 704.132813 L 141.96875 704.277344 " transform="matrix(1,0,0,-1,-93.5,754.5)"/>
<path style="fill-rule:evenodd;fill:rgb(0%,0%,0%);fill-opacity:1;stroke-width:0.4;stroke-linecap:butt;stroke-linejoin:round;stroke:rgb(0%,0%,0%);stroke-opacity:1;stroke-miterlimit:10;" d="M 141.96875 704.277344 L 138.957031 705.242188 L 139.570313 704.25 L 138.980469 703.242188 Z M 141.96875 704.277344 " transform="matrix(1,0,0,-1,-93.5,754.5)"/>
<path style="fill:none;stroke-width:0.4;stroke-linecap:butt;stroke-linejoin:round;stroke:rgb(0%,0%,0%);stroke-opacity:1;stroke-miterlimit:10;" d="M 145.824219 704.277344 L 157.820313 704.132813 " transform="matrix(1,0,0,-1,-93.5,754.5)"/>
<path style="fill-rule:evenodd;fill:rgb(0%,0%,0%);fill-opacity:1;stroke-width:0.4;stroke-linecap:butt;stroke-linejoin:round;stroke:rgb(0%,0%,0%);stroke-opacity:1;stroke-miterlimit:10;" d="M 157.820313 704.132813 L 154.832031 705.167969 L 155.421875 704.164063 L 154.808594 703.171875 Z M 157.820313 704.132813 " transform="matrix(1,0,0,-1,-93.5,754.5)"/>
<path style="fill:none;stroke-width:0.4;stroke-linecap:butt;stroke-linejoin:round;stroke:rgb(0%,0%,0%);stroke-opacity:1;stroke-miterlimit:10;" d="M 158.960938 705.5625 C 154.25 712.988281 153.035156 718.558594 152.359375 722.605469 C 151.679688 726.648438 151.535156 729.171875 151.609375 732.574219 C 151.679688 735.980469 151.964844 740.265625 158.820313 750.402344 " transform="matrix(1,0,0,-1,-93.5,754.5)"/>
<path style="fill-rule:evenodd;fill:rgb(0%,0%,0%);fill-opacity:1;stroke-width:0.4;stroke-linecap:butt;stroke-linejoin:round;stroke:rgb(0%,0%,0%);stroke-opacity:1;stroke-miterlimit:10;" d="M 158.820313 750.402344 L 156.3125 748.476563 L 157.476563 748.414063 L 157.96875 747.359375 Z M 158.820313 750.402344 " transform="matrix(1,0,0,-1,-93.5,754.5)"/>
<path style="fill:none;stroke-width:0.4;stroke-linecap:butt;stroke-linejoin:round;stroke:rgb(0%,0%,0%);stroke-opacity:1;stroke-miterlimit:10;" d="M 158.960938 702.992188 C 155.105469 700.421875 155.320313 697.566406 155.855469 695.421875 C 156.390625 693.28125 157.25 691.851563 158.675781 689.710938 " transform="matrix(1,0,0,-1,-93.5,754.5)"/>
<path style="fill-rule:evenodd;fill:rgb(0%,0%,0%);fill-opacity:1;stroke-width:0.4;stroke-linecap:butt;stroke-linejoin:round;stroke:rgb(0%,0%,0%);stroke-opacity:1;stroke-miterlimit:10;" d="M 158.675781 689.710938 L 157.84375 692.761719 L 157.347656 691.707031 L 156.179688 691.652344 Z M 158.675781 689.710938 " transform="matrix(1,0,0,-1,-93.5,754.5)"/>
<path style=" stroke:none;fill-rule:evenodd;fill:rgb(100%,0%,0%);fill-opacity:1;" d="M 68.300781 18.5 C 68.300781 17.507813 67.492188 16.699219 66.5 16.699219 C 65.507813 16.699219 64.699219 17.507813 64.699219 18.5 C 64.699219 19.492188 65.507813 20.300781 66.5 20.300781 C 67.492188 20.300781 68.300781 19.492188 68.300781 18.5 "/>
<path style="fill:none;stroke-width:0.4;stroke-linecap:butt;stroke-linejoin:round;stroke:rgb(0%,0%,0%);stroke-opacity:1;stroke-miterlimit:10;" d="M 159.960938 706.277344 C 165.101563 714.558594 165.578125 724.078125 161.390625 734.835938 " transform="matrix(1,0,0,-1,-93.5,754.5)"/>
<path style="fill-rule:evenodd;fill:rgb(0%,0%,0%);fill-opacity:1;stroke-width:0.4;stroke-linecap:butt;stroke-linejoin:round;stroke:rgb(0%,0%,0%);stroke-opacity:1;stroke-miterlimit:10;" d="M 161.390625 734.835938 L 161.546875 731.679688 L 162.261719 732.601563 L 163.410156 732.402344 Z M 161.390625 734.835938 " transform="matrix(1,0,0,-1,-93.5,754.5)"/>
<path style="fill:none;stroke-width:0.4;stroke-linecap:butt;stroke-linejoin:round;stroke:rgb(0%,0%,0%);stroke-opacity:1;stroke-miterlimit:10;" d="M 161.675781 704.132813 L 174.242188 704.132813 " transform="matrix(1,0,0,-1,-93.5,754.5)"/>
<path style="fill-rule:evenodd;fill:rgb(0%,0%,0%);fill-opacity:1;stroke-width:0.4;stroke-linecap:butt;stroke-linejoin:round;stroke:rgb(0%,0%,0%);stroke-opacity:1;stroke-miterlimit:10;" d="M 174.242188 704.132813 L 171.242188 705.132813 L 171.84375 704.132813 L 171.242188 703.136719 Z M 174.242188 704.132813 " transform="matrix(1,0,0,-1,-93.5,754.5)"/>
<path style="fill:none;stroke-width:0.4;stroke-linecap:butt;stroke-linejoin:round;stroke:rgb(0%,0%,0%);stroke-opacity:1;stroke-miterlimit:10;" d="M 177.8125 704.277344 L 189.949219 704.132813 " transform="matrix(1,0,0,-1,-93.5,754.5)"/>
<path style="fill-rule:evenodd;fill:rgb(0%,0%,0%);fill-opacity:1;stroke-width:0.4;stroke-linecap:butt;stroke-linejoin:round;stroke:rgb(0%,0%,0%);stroke-opacity:1;stroke-miterlimit:10;" d="M 189.949219 704.132813 L 186.964844 705.167969 L 187.550781 704.160156 L 186.941406 703.171875 Z M 189.949219 704.132813 " transform="matrix(1,0,0,-1,-93.5,754.5)"/>
<path style=" stroke:none;fill-rule:evenodd;fill:rgb(100%,0%,0%);fill-opacity:1;" d="M 100.300781 82.5 C 100.300781 81.507813 99.492188 80.699219 98.5 80.699219 C 97.507813 80.699219 96.699219 81.507813 96.699219 82.5 C 96.699219 83.492188 97.507813 84.300781 98.5 84.300781 C 99.492188 84.300781 100.300781 83.492188 100.300781 82.5 "/>
<path style="fill:none;stroke-width:0.4;stroke-linecap:butt;stroke-linejoin:round;stroke:rgb(0%,0%,0%);stroke-opacity:1;stroke-miterlimit:10;" d="M 192.09375 702.421875 C 195.425781 692.996094 195.804688 683.476563 193.234375 673.859375 " transform="matrix(1,0,0,-1,-93.5,754.5)"/>
<path style="fill-rule:evenodd;fill:rgb(0%,0%,0%);fill-opacity:1;stroke-width:0.4;stroke-linecap:butt;stroke-linejoin:round;stroke:rgb(0%,0%,0%);stroke-opacity:1;stroke-miterlimit:10;" d="M 193.234375 673.859375 L 194.976563 676.5 L 193.855469 676.179688 L 193.046875 677.015625 Z M 193.234375 673.859375 " transform="matrix(1,0,0,-1,-93.5,754.5)"/>
<path style="fill:none;stroke-width:0.4;stroke-linecap:butt;stroke-linejoin:round;stroke:rgb(0%,0%,0%);stroke-opacity:1;stroke-miterlimit:10;" d="M 113.980469 704.132813 L 125.832031 704.132813 " transform="matrix(1,0,0,-1,-93.5,754.5)"/>
<path style="fill-rule:evenodd;fill:rgb(0%,0%,0%);fill-opacity:1;stroke-width:0.4;stroke-linecap:butt;stroke-linejoin:round;stroke:rgb(0%,0%,0%);stroke-opacity:1;stroke-miterlimit:10;" d="M 125.832031 704.132813 L 122.832031 705.132813 L 123.433594 704.132813 L 122.832031 703.136719 Z M 125.832031 704.132813 " transform="matrix(1,0,0,-1,-93.5,754.5)"/>
<path style="fill:none;stroke-width:0.4;stroke-linecap:butt;stroke-linejoin:round;stroke:rgb(0%,0%,0%);stroke-opacity:1;stroke-miterlimit:10;" d="M 97.84375 704.277344 L 109.835938 704.132813 " transform="matrix(1,0,0,-1,-93.5,754.5)"/>
<path style="fill-rule:evenodd;fill:rgb(0%,0%,0%);fill-opacity:1;stroke-width:0.4;stroke-linecap:butt;stroke-linejoin:round;stroke:rgb(0%,0%,0%);stroke-opacity:1;stroke-miterlimit:10;" d="M 109.835938 704.132813 L 106.851563 705.167969 L 107.4375 704.164063 L 106.824219 703.171875 Z M 109.835938 704.132813 " transform="matrix(1,0,0,-1,-93.5,754.5)"/>
</g>
</svg>
